<?xml version="1.0" standalone="no"?>
<!DOCTYPE svg PUBLIC "-//W3C//DTD SVG 20010904//EN"
 "http://www.w3.org/TR/2001/REC-SVG-20010904/DTD/svg10.dtd">
<svg version="1.0" xmlns="http://www.w3.org/2000/svg"
 width="591.000000pt" height="591.000000pt" viewBox="0 0 591.000000 591.000000"
 preserveAspectRatio="xMidYMid meet">
<metadata>
Created by potrace 1.14, written by Peter Selinger 2001-2017
</metadata>
<g transform="translate(0.000000,591.000000) scale(0.100000,-0.100000)"
fill="#000000" stroke="none">
<path d="M985 5889 c-33 -12 -61 -25 -63 -30 -2 -5 -10 -9 -17 -9 -7 0 -35
-22 -62 -48 -45 -45 -90 -97 -84 -97 1 0 -8 -22 -21 -50 l-23 -50 -3 -2215
c-2 -2034 -1 -2218 14 -2265 41 -124 106 -200 220 -256 l69 -34 1940 0 1940 0
68 33 c112 55 193 154 226 277 8 28 11 696 11 2226 0 1968 -2 2191 -16 2240
-30 102 -98 191 -187 243 -100 59 29 56 -2047 56 -1894 -1 -1905 -1 -1965 -21z"/>
<path d="M2139 535 c-1 -6 -2 -72 -3 -147 -1 -105 2 -138 11 -138 7 0 13 5 13
11 0 8 4 8 13 1 6 -5 27 -13 46 -15 69 -11 115 79 79 157 -17 39 -75 53 -114
30 -21 -13 -22 -12 -21 37 0 27 -5 55 -11 61 -7 7 -13 8 -13 3z m130 -141 c16
-36 14 -85 -6 -106 -16 -18 -49 -23 -69 -10 -18 12 -33 47 -29 68 2 10 4 25 4
32 1 6 9 20 20 31 25 25 65 17 80 -15z"/>
<path d="M3130 532 c-18 -6 -33 -29 -37 -57 -6 -36 -12 -45 -28 -39 -8 3 -15
1 -15 -5 0 -10 14 -15 33 -12 4 0 7 -11 8 -26 0 -16 2 -53 2 -83 3 -86 21 -71
27 22 3 56 9 83 18 84 29 2 33 5 27 14 -3 6 -15 10 -26 10 -12 0 -19 7 -19 19
0 33 11 51 31 51 10 0 19 4 19 9 0 12 -22 19 -40 13z"/>
<path d="M3450 532 c-35 -3 -35 -3 -88 -135 -30 -73 -53 -136 -53 -142 1 -8
26 -11 52 -6 4 0 12 15 19 31 12 29 15 30 71 30 55 0 60 -2 72 -27 6 -16 16
-31 21 -35 13 -9 61 -2 59 8 -2 11 -114 279 -117 279 0 0 -17 -1 -36 -3z m24
-122 c9 -28 11 -47 5 -50 -9 -6 -69 -1 -69 5 0 8 42 96 45 93 2 -2 10 -23 19
-48z"/>
<path d="M3706 529 c-48 -8 -76 -39 -76 -84 0 -37 19 -57 77 -80 47 -19 59
-38 37 -60 -18 -17 -57 -20 -84 -5 -14 8 -19 5 -24 -13 -8 -32 8 -42 68 -41
63 1 103 22 112 59 12 48 -3 71 -63 102 -60 31 -68 40 -53 63 6 10 24 14 55
12 42 -1 46 0 43 20 -4 26 -38 37 -92 27z"/>
<path d="M3853 530 c-17 -5 -18 -10 -14 -38 0 -5 19 -8 41 -7 23 1 40 -3 41
-9 0 -6 1 -59 1 -118 0 -60 4 -108 9 -109 55 -7 54 -10 56 86 1 50 2 104 2
121 1 29 3 30 43 30 43 -1 46 2 39 42 -1 8 -189 10 -218 2z"/>
<path d="M4118 530 c-22 -6 -23 -9 -24 -135 0 -72 1 -135 3 -141 2 -6 16 -10
31 -9 26 1 27 4 30 59 3 53 5 57 25 54 15 -2 30 -19 48 -58 23 -48 30 -54 58
-55 17 0 31 2 31 6 0 13 -52 124 -61 130 -5 3 1 11 15 17 32 14 43 64 22 97
-21 31 -114 50 -178 35z m115 -57 c4 -2 7 -13 7 -23 0 -21 -28 -40 -59 -40
-17 0 -21 6 -21 33 0 19 3 37 6 40 7 6 49 0 67 -10z"/>
<path d="M4440 520 c-14 -27 -110 -262 -110 -271 0 -4 15 -6 32 -5 27 2 34 8
42 34 9 32 10 32 71 32 60 0 63 -1 75 -30 7 -16 15 -31 19 -31 27 -6 52 -5 56
1 4 7 -30 96 -72 189 -9 19 -19 46 -23 60 -8 33 -75 49 -90 21z m63 -117 c13
-32 14 -43 4 -44 -6 0 -22 -2 -35 -3 -32 -4 -34 5 -15 58 19 51 23 50 46 -11z"/>
<path d="M1643 440 c-26 -11 -49 -53 -51 -95 -2 -37 31 -95 55 -96 10 0 26 -2
37 -4 23 -4 66 11 66 24 0 4 -20 6 -44 4 -36 -4 -48 -1 -65 16 -32 32 -22 46
35 48 27 1 57 2 68 2 16 1 18 7 13 36 -3 19 -13 42 -21 50 -19 20 -65 27 -93
15z m75 -38 c25 -32 14 -42 -43 -42 -61 0 -67 9 -31 45 26 26 51 25 74 -3z"/>
<path d="M2376 423 c-14 -14 -26 -31 -27 -37 0 -6 -2 -20 -4 -31 -12 -56 37
-114 93 -109 12 1 31 2 42 3 11 0 20 8 20 16 0 12 -7 14 -27 9 -38 -9 -35 -9
-59 -1 -18 6 -44 44 -44 63 0 3 17 5 38 4 94 -5 102 -2 102 29 0 69 -85 103
-134 54z m102 -42 c3 -19 -1 -21 -46 -21 -56 0 -65 5 -51 32 24 44 90 37 97
-11z"/>
<path d="M2905 443 c-49 -12 -74 -68 -60 -133 19 -85 161 -84 180 0 9 42 -1
94 -23 113 -20 17 -68 27 -97 20z m82 -54 c29 -56 1 -119 -52 -119 -72 0 -90
124 -22 149 30 11 59 -1 74 -30z"/>
<path d="M1276 343 c2 -114 1 -110 14 -97 5 5 11 40 13 77 5 73 17 97 52 97
33 0 42 -18 43 -85 1 -100 0 -99 15 -86 8 6 13 29 12 58 -2 65 12 102 41 109
42 11 54 -10 54 -97 0 -63 3 -77 14 -73 20 8 20 141 0 172 -18 27 -74 30 -99
5 -16 -16 -18 -16 -27 0 -10 19 -59 23 -89 7 -13 -7 -19 -7 -19 0 0 5 -6 10
-13 10 -9 0 -12 -24 -11 -97z"/>
<path d="M1809 433 c-1 -5 -2 -49 -3 -99 -1 -68 2 -91 11 -91 9 0 13 16 14 46
2 95 18 130 60 131 28 0 37 -22 37 -90 0 -89 0 -90 15 -84 9 3 13 24 12 66 -1
65 20 108 54 108 32 0 41 -22 41 -103 0 -58 3 -78 13 -75 19 7 22 144 2 174
-18 28 -63 32 -99 9 -21 -14 -24 -14 -29 0 -8 20 -71 20 -91 -1 -15 -14 -16
-14 -16 0 0 16 -19 23 -21 9z"/>
<path d="M2564 428 c-4 -6 -7 -41 -7 -77 2 -116 2 -116 15 -103 7 7 13 39 14
73 1 63 18 94 51 94 9 0 18 6 20 13 6 15 -43 17 -52 2 -3 -5 -11 -10 -16 -10
-6 0 -7 5 -4 10 3 6 2 10 -4 10 -5 0 -13 -5 -17 -12z"/>
</g>
</svg>
